%TF.GenerationSoftware,KiCad,Pcbnew,5.1.6-c6e7f7d~87~ubuntu18.04.1*%
%TF.CreationDate,2020-08-16T10:59:55+02:00*%
%TF.ProjectId,Elektronik,456c656b-7472-46f6-9e69-6b2e6b696361,rev?*%
%TF.SameCoordinates,Original*%
%TF.FileFunction,Legend,Top*%
%TF.FilePolarity,Positive*%
%FSLAX46Y46*%
G04 Gerber Fmt 4.6, Leading zero omitted, Abs format (unit mm)*
G04 Created by KiCad (PCBNEW 5.1.6-c6e7f7d~87~ubuntu18.04.1) date 2020-08-16 10:59:55*
%MOMM*%
%LPD*%
G01*
G04 APERTURE LIST*
%ADD10C,0.150000*%
%ADD11C,0.120000*%
G04 APERTURE END LIST*
D10*
X223607380Y-182736428D02*
X223607380Y-182165000D01*
X224607380Y-182450714D02*
X223607380Y-182450714D01*
X223607380Y-181641190D02*
X223607380Y-181450714D01*
X223655000Y-181355476D01*
X223750238Y-181260238D01*
X223940714Y-181212619D01*
X224274047Y-181212619D01*
X224464523Y-181260238D01*
X224559761Y-181355476D01*
X224607380Y-181450714D01*
X224607380Y-181641190D01*
X224559761Y-181736428D01*
X224464523Y-181831666D01*
X224274047Y-181879285D01*
X223940714Y-181879285D01*
X223750238Y-181831666D01*
X223655000Y-181736428D01*
X223607380Y-181641190D01*
X223607380Y-180784047D02*
X224416904Y-180784047D01*
X224512142Y-180736428D01*
X224559761Y-180688809D01*
X224607380Y-180593571D01*
X224607380Y-180403095D01*
X224559761Y-180307857D01*
X224512142Y-180260238D01*
X224416904Y-180212619D01*
X223607380Y-180212619D01*
X224512142Y-179165000D02*
X224559761Y-179212619D01*
X224607380Y-179355476D01*
X224607380Y-179450714D01*
X224559761Y-179593571D01*
X224464523Y-179688809D01*
X224369285Y-179736428D01*
X224178809Y-179784047D01*
X224035952Y-179784047D01*
X223845476Y-179736428D01*
X223750238Y-179688809D01*
X223655000Y-179593571D01*
X223607380Y-179450714D01*
X223607380Y-179355476D01*
X223655000Y-179212619D01*
X223702619Y-179165000D01*
X224607380Y-178736428D02*
X223607380Y-178736428D01*
X224083571Y-178736428D02*
X224083571Y-178165000D01*
X224607380Y-178165000D02*
X223607380Y-178165000D01*
X224083571Y-176593571D02*
X224131190Y-176450714D01*
X224178809Y-176403095D01*
X224274047Y-176355476D01*
X224416904Y-176355476D01*
X224512142Y-176403095D01*
X224559761Y-176450714D01*
X224607380Y-176545952D01*
X224607380Y-176926904D01*
X223607380Y-176926904D01*
X223607380Y-176593571D01*
X223655000Y-176498333D01*
X223702619Y-176450714D01*
X223797857Y-176403095D01*
X223893095Y-176403095D01*
X223988333Y-176450714D01*
X224035952Y-176498333D01*
X224083571Y-176593571D01*
X224083571Y-176926904D01*
X223607380Y-175926904D02*
X224416904Y-175926904D01*
X224512142Y-175879285D01*
X224559761Y-175831666D01*
X224607380Y-175736428D01*
X224607380Y-175545952D01*
X224559761Y-175450714D01*
X224512142Y-175403095D01*
X224416904Y-175355476D01*
X223607380Y-175355476D01*
X223607380Y-175022142D02*
X223607380Y-174450714D01*
X224607380Y-174736428D02*
X223607380Y-174736428D01*
X223607380Y-174260238D02*
X223607380Y-173688809D01*
X224607380Y-173974523D02*
X223607380Y-173974523D01*
X223607380Y-173165000D02*
X223607380Y-172974523D01*
X223655000Y-172879285D01*
X223750238Y-172784047D01*
X223940714Y-172736428D01*
X224274047Y-172736428D01*
X224464523Y-172784047D01*
X224559761Y-172879285D01*
X224607380Y-172974523D01*
X224607380Y-173165000D01*
X224559761Y-173260238D01*
X224464523Y-173355476D01*
X224274047Y-173403095D01*
X223940714Y-173403095D01*
X223750238Y-173355476D01*
X223655000Y-173260238D01*
X223607380Y-173165000D01*
X224607380Y-172307857D02*
X223607380Y-172307857D01*
X224607380Y-171736428D01*
X223607380Y-171736428D01*
X40973952Y-194397380D02*
X40973952Y-195111666D01*
X40926333Y-195254523D01*
X40831095Y-195349761D01*
X40688238Y-195397380D01*
X40593000Y-195397380D01*
X41926333Y-195397380D02*
X41450142Y-195397380D01*
X41450142Y-194397380D01*
X42831095Y-195302142D02*
X42783476Y-195349761D01*
X42640619Y-195397380D01*
X42545380Y-195397380D01*
X42402523Y-195349761D01*
X42307285Y-195254523D01*
X42259666Y-195159285D01*
X42212047Y-194968809D01*
X42212047Y-194825952D01*
X42259666Y-194635476D01*
X42307285Y-194540238D01*
X42402523Y-194445000D01*
X42545380Y-194397380D01*
X42640619Y-194397380D01*
X42783476Y-194445000D01*
X42831095Y-194492619D01*
X43545380Y-194397380D02*
X43545380Y-195111666D01*
X43497761Y-195254523D01*
X43402523Y-195349761D01*
X43259666Y-195397380D01*
X43164428Y-195397380D01*
X44497761Y-195397380D02*
X44021571Y-195397380D01*
X44021571Y-194397380D01*
X45402523Y-195302142D02*
X45354904Y-195349761D01*
X45212047Y-195397380D01*
X45116809Y-195397380D01*
X44973952Y-195349761D01*
X44878714Y-195254523D01*
X44831095Y-195159285D01*
X44783476Y-194968809D01*
X44783476Y-194825952D01*
X44831095Y-194635476D01*
X44878714Y-194540238D01*
X44973952Y-194445000D01*
X45116809Y-194397380D01*
X45212047Y-194397380D01*
X45354904Y-194445000D01*
X45402523Y-194492619D01*
X46116809Y-194397380D02*
X46116809Y-195111666D01*
X46069190Y-195254523D01*
X45973952Y-195349761D01*
X45831095Y-195397380D01*
X45735857Y-195397380D01*
X47069190Y-195397380D02*
X46593000Y-195397380D01*
X46593000Y-194397380D01*
X47973952Y-195302142D02*
X47926333Y-195349761D01*
X47783476Y-195397380D01*
X47688238Y-195397380D01*
X47545380Y-195349761D01*
X47450142Y-195254523D01*
X47402523Y-195159285D01*
X47354904Y-194968809D01*
X47354904Y-194825952D01*
X47402523Y-194635476D01*
X47450142Y-194540238D01*
X47545380Y-194445000D01*
X47688238Y-194397380D01*
X47783476Y-194397380D01*
X47926333Y-194445000D01*
X47973952Y-194492619D01*
X48688238Y-194397380D02*
X48688238Y-195111666D01*
X48640619Y-195254523D01*
X48545380Y-195349761D01*
X48402523Y-195397380D01*
X48307285Y-195397380D01*
X49640619Y-195397380D02*
X49164428Y-195397380D01*
X49164428Y-194397380D01*
X50545380Y-195302142D02*
X50497761Y-195349761D01*
X50354904Y-195397380D01*
X50259666Y-195397380D01*
X50116809Y-195349761D01*
X50021571Y-195254523D01*
X49973952Y-195159285D01*
X49926333Y-194968809D01*
X49926333Y-194825952D01*
X49973952Y-194635476D01*
X50021571Y-194540238D01*
X50116809Y-194445000D01*
X50259666Y-194397380D01*
X50354904Y-194397380D01*
X50497761Y-194445000D01*
X50545380Y-194492619D01*
D11*
%TO.C,J4*%
X221174000Y-202251000D02*
X222504000Y-202251000D01*
X221174000Y-203581000D02*
X221174000Y-202251000D01*
X223774000Y-202251000D02*
X226374000Y-202251000D01*
X223774000Y-204851000D02*
X223774000Y-202251000D01*
X221174000Y-204851000D02*
X223774000Y-204851000D01*
X226374000Y-202251000D02*
X226374000Y-212531000D01*
X221174000Y-204851000D02*
X221174000Y-212531000D01*
X221174000Y-212531000D02*
X226374000Y-212531000D01*
%TO.C,J3*%
X40072000Y-202251000D02*
X41402000Y-202251000D01*
X40072000Y-203581000D02*
X40072000Y-202251000D01*
X42672000Y-202251000D02*
X45272000Y-202251000D01*
X42672000Y-204851000D02*
X42672000Y-202251000D01*
X40072000Y-204851000D02*
X42672000Y-204851000D01*
X45272000Y-202251000D02*
X45272000Y-212531000D01*
X40072000Y-204851000D02*
X40072000Y-212531000D01*
X40072000Y-212531000D02*
X45272000Y-212531000D01*
%TO.C,J2*%
X221428000Y-25721000D02*
X222758000Y-25721000D01*
X221428000Y-27051000D02*
X221428000Y-25721000D01*
X224028000Y-25721000D02*
X226628000Y-25721000D01*
X224028000Y-28321000D02*
X224028000Y-25721000D01*
X221428000Y-28321000D02*
X224028000Y-28321000D01*
X226628000Y-25721000D02*
X226628000Y-36001000D01*
X221428000Y-28321000D02*
X221428000Y-36001000D01*
X221428000Y-36001000D02*
X226628000Y-36001000D01*
%TO.C,J1*%
X39818000Y-25594000D02*
X41148000Y-25594000D01*
X39818000Y-26924000D02*
X39818000Y-25594000D01*
X42418000Y-25594000D02*
X45018000Y-25594000D01*
X42418000Y-28194000D02*
X42418000Y-25594000D01*
X39818000Y-28194000D02*
X42418000Y-28194000D01*
X45018000Y-25594000D02*
X45018000Y-35874000D01*
X39818000Y-28194000D02*
X39818000Y-35874000D01*
X39818000Y-35874000D02*
X45018000Y-35874000D01*
%TO.C,H4*%
D10*
X215011095Y-201273380D02*
X215011095Y-200273380D01*
X215011095Y-200749571D02*
X215582523Y-200749571D01*
X215582523Y-201273380D02*
X215582523Y-200273380D01*
X216487285Y-200606714D02*
X216487285Y-201273380D01*
X216249190Y-200225761D02*
X216011095Y-200940047D01*
X216630142Y-200940047D01*
%TO.C,H3*%
X49784095Y-201273380D02*
X49784095Y-200273380D01*
X49784095Y-200749571D02*
X50355523Y-200749571D01*
X50355523Y-201273380D02*
X50355523Y-200273380D01*
X50736476Y-200273380D02*
X51355523Y-200273380D01*
X51022190Y-200654333D01*
X51165047Y-200654333D01*
X51260285Y-200701952D01*
X51307904Y-200749571D01*
X51355523Y-200844809D01*
X51355523Y-201082904D01*
X51307904Y-201178142D01*
X51260285Y-201225761D01*
X51165047Y-201273380D01*
X50879333Y-201273380D01*
X50784095Y-201225761D01*
X50736476Y-201178142D01*
%TO.C,H2*%
X215392095Y-24743380D02*
X215392095Y-23743380D01*
X215392095Y-24219571D02*
X215963523Y-24219571D01*
X215963523Y-24743380D02*
X215963523Y-23743380D01*
X216392095Y-23838619D02*
X216439714Y-23791000D01*
X216534952Y-23743380D01*
X216773047Y-23743380D01*
X216868285Y-23791000D01*
X216915904Y-23838619D01*
X216963523Y-23933857D01*
X216963523Y-24029095D01*
X216915904Y-24171952D01*
X216344476Y-24743380D01*
X216963523Y-24743380D01*
%TO.C,H1*%
X49530095Y-24616380D02*
X49530095Y-23616380D01*
X49530095Y-24092571D02*
X50101523Y-24092571D01*
X50101523Y-24616380D02*
X50101523Y-23616380D01*
X51101523Y-24616380D02*
X50530095Y-24616380D01*
X50815809Y-24616380D02*
X50815809Y-23616380D01*
X50720571Y-23759238D01*
X50625333Y-23854476D01*
X50530095Y-23902095D01*
%TO.C,J4*%
X223440666Y-200703380D02*
X223440666Y-201417666D01*
X223393047Y-201560523D01*
X223297809Y-201655761D01*
X223154952Y-201703380D01*
X223059714Y-201703380D01*
X224345428Y-201036714D02*
X224345428Y-201703380D01*
X224107333Y-200655761D02*
X223869238Y-201370047D01*
X224488285Y-201370047D01*
%TO.C,J3*%
X42338666Y-200703380D02*
X42338666Y-201417666D01*
X42291047Y-201560523D01*
X42195809Y-201655761D01*
X42052952Y-201703380D01*
X41957714Y-201703380D01*
X42719619Y-200703380D02*
X43338666Y-200703380D01*
X43005333Y-201084333D01*
X43148190Y-201084333D01*
X43243428Y-201131952D01*
X43291047Y-201179571D01*
X43338666Y-201274809D01*
X43338666Y-201512904D01*
X43291047Y-201608142D01*
X43243428Y-201655761D01*
X43148190Y-201703380D01*
X42862476Y-201703380D01*
X42767238Y-201655761D01*
X42719619Y-201608142D01*
%TO.C,J2*%
X223694666Y-24173380D02*
X223694666Y-24887666D01*
X223647047Y-25030523D01*
X223551809Y-25125761D01*
X223408952Y-25173380D01*
X223313714Y-25173380D01*
X224123238Y-24268619D02*
X224170857Y-24221000D01*
X224266095Y-24173380D01*
X224504190Y-24173380D01*
X224599428Y-24221000D01*
X224647047Y-24268619D01*
X224694666Y-24363857D01*
X224694666Y-24459095D01*
X224647047Y-24601952D01*
X224075619Y-25173380D01*
X224694666Y-25173380D01*
%TO.C,J1*%
X42084666Y-24046380D02*
X42084666Y-24760666D01*
X42037047Y-24903523D01*
X41941809Y-24998761D01*
X41798952Y-25046380D01*
X41703714Y-25046380D01*
X43084666Y-25046380D02*
X42513238Y-25046380D01*
X42798952Y-25046380D02*
X42798952Y-24046380D01*
X42703714Y-24189238D01*
X42608476Y-24284476D01*
X42513238Y-24332095D01*
%TD*%
M02*
