M48
; DRILL file {KiCad 5.1.6-c6e7f7d~87~ubuntu18.04.1} date Sun Aug 16 10:59:56 2020
; FORMAT={-:-/ absolute / inch / decimal}
; #@! TF.CreationDate,2020-08-16T10:59:56+02:00
; #@! TF.GenerationSoftware,Kicad,Pcbnew,5.1.6-c6e7f7d~87~ubuntu18.04.1
; #@! TF.FileFunction,Plated,1,2,PTH
FMAT,2
INCH
T1C0.0236
T2C0.0394
T3C0.1693
%
G90
G05
T1
X1.853Y-1.16
X1.8902Y-1.0702
X1.8902Y-1.2498
X1.98Y-1.033
X1.98Y-1.287
X2.0698Y-1.0702
X2.0698Y-1.2498
X2.107Y-1.16
X8.368Y-8.115
X8.4052Y-8.0252
X8.4052Y-8.2048
X8.495Y-7.988
X8.495Y-8.242
X8.5848Y-8.0252
X8.5848Y-8.2048
X8.622Y-8.115
X1.863Y-8.115
X1.9002Y-8.0252
X1.9002Y-8.2048
X1.99Y-7.988
X1.99Y-8.242
X2.0798Y-8.0252
X2.0798Y-8.2048
X2.117Y-8.115
X8.383Y-1.165
X8.4202Y-1.0752
X8.4202Y-1.2548
X8.51Y-1.038
X8.51Y-1.292
X8.5998Y-1.0752
X8.5998Y-1.2548
X8.637Y-1.165
T2
X1.62Y-1.06
X1.62Y-1.16
X1.62Y-1.26
X1.62Y-1.36
X1.72Y-1.06
X1.72Y-1.16
X1.72Y-1.26
X1.72Y-1.36
X8.77Y-1.065
X8.77Y-1.165
X8.77Y-1.265
X8.77Y-1.365
X8.87Y-1.065
X8.87Y-1.165
X8.87Y-1.265
X8.87Y-1.365
X1.63Y-8.015
X1.63Y-8.115
X1.63Y-8.215
X1.63Y-8.315
X1.73Y-8.015
X1.73Y-8.115
X1.73Y-8.215
X1.73Y-8.315
X8.76Y-8.015
X8.76Y-8.115
X8.76Y-8.215
X8.76Y-8.315
X8.86Y-8.015
X8.86Y-8.115
X8.86Y-8.215
X8.86Y-8.315
T3
X1.98Y-1.16
X8.495Y-8.115
X1.99Y-8.115
X8.51Y-1.165
T0
M30
