%TF.GenerationSoftware,KiCad,Pcbnew,5.1.6-c6e7f7d~87~ubuntu18.04.1*%
%TF.CreationDate,2020-08-30T13:02:08+02:00*%
%TF.ProjectId,Elektronik,456c656b-7472-46f6-9e69-6b2e6b696361,rev?*%
%TF.SameCoordinates,Original*%
%TF.FileFunction,Legend,Bot*%
%TF.FilePolarity,Positive*%
%FSLAX46Y46*%
G04 Gerber Fmt 4.6, Leading zero omitted, Abs format (unit mm)*
G04 Created by KiCad (PCBNEW 5.1.6-c6e7f7d~87~ubuntu18.04.1) date 2020-08-30 13:02:08*
%MOMM*%
%LPD*%
G01*
G04 APERTURE LIST*
%ADD10C,0.150000*%
%ADD11C,0.400000*%
%ADD12C,0.120000*%
%ADD13C,0.300000*%
%ADD14C,0.250000*%
%ADD15C,0.500000*%
G04 APERTURE END LIST*
D10*
X207468214Y-21042380D02*
X207944404Y-21042380D01*
X207992023Y-21518571D01*
X207944404Y-21470952D01*
X207849166Y-21423333D01*
X207611071Y-21423333D01*
X207515833Y-21470952D01*
X207468214Y-21518571D01*
X207420595Y-21613809D01*
X207420595Y-21851904D01*
X207468214Y-21947142D01*
X207515833Y-21994761D01*
X207611071Y-22042380D01*
X207849166Y-22042380D01*
X207944404Y-21994761D01*
X207992023Y-21947142D01*
X207134880Y-21042380D02*
X206801547Y-22042380D01*
X206468214Y-21042380D01*
X217042904Y-21090000D02*
X217138142Y-21042380D01*
X217281000Y-21042380D01*
X217423857Y-21090000D01*
X217519095Y-21185238D01*
X217566714Y-21280476D01*
X217614333Y-21470952D01*
X217614333Y-21613809D01*
X217566714Y-21804285D01*
X217519095Y-21899523D01*
X217423857Y-21994761D01*
X217281000Y-22042380D01*
X217185761Y-22042380D01*
X217042904Y-21994761D01*
X216995285Y-21947142D01*
X216995285Y-21613809D01*
X217185761Y-21613809D01*
X216566714Y-22042380D02*
X216566714Y-21042380D01*
X215995285Y-22042380D01*
X215995285Y-21042380D01*
X215519095Y-22042380D02*
X215519095Y-21042380D01*
X215281000Y-21042380D01*
X215138142Y-21090000D01*
X215042904Y-21185238D01*
X214995285Y-21280476D01*
X214947666Y-21470952D01*
X214947666Y-21613809D01*
X214995285Y-21804285D01*
X215042904Y-21899523D01*
X215138142Y-21994761D01*
X215281000Y-22042380D01*
X215519095Y-22042380D01*
X208738214Y-215987380D02*
X209214404Y-215987380D01*
X209262023Y-216463571D01*
X209214404Y-216415952D01*
X209119166Y-216368333D01*
X208881071Y-216368333D01*
X208785833Y-216415952D01*
X208738214Y-216463571D01*
X208690595Y-216558809D01*
X208690595Y-216796904D01*
X208738214Y-216892142D01*
X208785833Y-216939761D01*
X208881071Y-216987380D01*
X209119166Y-216987380D01*
X209214404Y-216939761D01*
X209262023Y-216892142D01*
X208404880Y-215987380D02*
X208071547Y-216987380D01*
X207738214Y-215987380D01*
X218312904Y-216035000D02*
X218408142Y-215987380D01*
X218551000Y-215987380D01*
X218693857Y-216035000D01*
X218789095Y-216130238D01*
X218836714Y-216225476D01*
X218884333Y-216415952D01*
X218884333Y-216558809D01*
X218836714Y-216749285D01*
X218789095Y-216844523D01*
X218693857Y-216939761D01*
X218551000Y-216987380D01*
X218455761Y-216987380D01*
X218312904Y-216939761D01*
X218265285Y-216892142D01*
X218265285Y-216558809D01*
X218455761Y-216558809D01*
X217836714Y-216987380D02*
X217836714Y-215987380D01*
X217265285Y-216987380D01*
X217265285Y-215987380D01*
X216789095Y-216987380D02*
X216789095Y-215987380D01*
X216551000Y-215987380D01*
X216408142Y-216035000D01*
X216312904Y-216130238D01*
X216265285Y-216225476D01*
X216217666Y-216415952D01*
X216217666Y-216558809D01*
X216265285Y-216749285D01*
X216312904Y-216844523D01*
X216408142Y-216939761D01*
X216551000Y-216987380D01*
X216789095Y-216987380D01*
X58991476Y-21042380D02*
X59467666Y-21042380D01*
X59515285Y-21518571D01*
X59467666Y-21470952D01*
X59372428Y-21423333D01*
X59134333Y-21423333D01*
X59039095Y-21470952D01*
X58991476Y-21518571D01*
X58943857Y-21613809D01*
X58943857Y-21851904D01*
X58991476Y-21947142D01*
X59039095Y-21994761D01*
X59134333Y-22042380D01*
X59372428Y-22042380D01*
X59467666Y-21994761D01*
X59515285Y-21947142D01*
X58658142Y-21042380D02*
X58324809Y-22042380D01*
X57991476Y-21042380D01*
X50672904Y-21090000D02*
X50768142Y-21042380D01*
X50911000Y-21042380D01*
X51053857Y-21090000D01*
X51149095Y-21185238D01*
X51196714Y-21280476D01*
X51244333Y-21470952D01*
X51244333Y-21613809D01*
X51196714Y-21804285D01*
X51149095Y-21899523D01*
X51053857Y-21994761D01*
X50911000Y-22042380D01*
X50815761Y-22042380D01*
X50672904Y-21994761D01*
X50625285Y-21947142D01*
X50625285Y-21613809D01*
X50815761Y-21613809D01*
X50196714Y-22042380D02*
X50196714Y-21042380D01*
X49625285Y-22042380D01*
X49625285Y-21042380D01*
X49149095Y-22042380D02*
X49149095Y-21042380D01*
X48911000Y-21042380D01*
X48768142Y-21090000D01*
X48672904Y-21185238D01*
X48625285Y-21280476D01*
X48577666Y-21470952D01*
X48577666Y-21613809D01*
X48625285Y-21804285D01*
X48672904Y-21899523D01*
X48768142Y-21994761D01*
X48911000Y-22042380D01*
X49149095Y-22042380D01*
X48640904Y-215400000D02*
X48736142Y-215352380D01*
X48879000Y-215352380D01*
X49021857Y-215400000D01*
X49117095Y-215495238D01*
X49164714Y-215590476D01*
X49212333Y-215780952D01*
X49212333Y-215923809D01*
X49164714Y-216114285D01*
X49117095Y-216209523D01*
X49021857Y-216304761D01*
X48879000Y-216352380D01*
X48783761Y-216352380D01*
X48640904Y-216304761D01*
X48593285Y-216257142D01*
X48593285Y-215923809D01*
X48783761Y-215923809D01*
X48164714Y-216352380D02*
X48164714Y-215352380D01*
X47593285Y-216352380D01*
X47593285Y-215352380D01*
X47117095Y-216352380D02*
X47117095Y-215352380D01*
X46879000Y-215352380D01*
X46736142Y-215400000D01*
X46640904Y-215495238D01*
X46593285Y-215590476D01*
X46545666Y-215780952D01*
X46545666Y-215923809D01*
X46593285Y-216114285D01*
X46640904Y-216209523D01*
X46736142Y-216304761D01*
X46879000Y-216352380D01*
X47117095Y-216352380D01*
X56973214Y-215352380D02*
X57449404Y-215352380D01*
X57497023Y-215828571D01*
X57449404Y-215780952D01*
X57354166Y-215733333D01*
X57116071Y-215733333D01*
X57020833Y-215780952D01*
X56973214Y-215828571D01*
X56925595Y-215923809D01*
X56925595Y-216161904D01*
X56973214Y-216257142D01*
X57020833Y-216304761D01*
X57116071Y-216352380D01*
X57354166Y-216352380D01*
X57449404Y-216304761D01*
X57497023Y-216257142D01*
X56639880Y-215352380D02*
X56306547Y-216352380D01*
X55973214Y-215352380D01*
D11*
X219075000Y-72390000D02*
X219075000Y-76200000D01*
X220980000Y-74295000D02*
X217170000Y-74295000D01*
D12*
X225361179Y-74358821D02*
G75*
G03*
X225361179Y-74358821I-6286179J0D01*
G01*
D13*
X223265476Y-113999285D02*
X223360714Y-114094523D01*
X223646428Y-114189761D01*
X223836904Y-114189761D01*
X224122619Y-114094523D01*
X224313095Y-113904047D01*
X224408333Y-113713571D01*
X224503571Y-113332619D01*
X224503571Y-113046904D01*
X224408333Y-112665952D01*
X224313095Y-112475476D01*
X224122619Y-112285000D01*
X223836904Y-112189761D01*
X223646428Y-112189761D01*
X223360714Y-112285000D01*
X223265476Y-112380238D01*
X221265476Y-114189761D02*
X221932142Y-113237380D01*
X222408333Y-114189761D02*
X222408333Y-112189761D01*
X221646428Y-112189761D01*
X221455952Y-112285000D01*
X221360714Y-112380238D01*
X221265476Y-112570714D01*
X221265476Y-112856428D01*
X221360714Y-113046904D01*
X221455952Y-113142142D01*
X221646428Y-113237380D01*
X222408333Y-113237380D01*
X220503571Y-112380238D02*
X220408333Y-112285000D01*
X220217857Y-112189761D01*
X219741666Y-112189761D01*
X219551190Y-112285000D01*
X219455952Y-112380238D01*
X219360714Y-112570714D01*
X219360714Y-112761190D01*
X219455952Y-113046904D01*
X220598809Y-114189761D01*
X219360714Y-114189761D01*
X218122619Y-112189761D02*
X217932142Y-112189761D01*
X217741666Y-112285000D01*
X217646428Y-112380238D01*
X217551190Y-112570714D01*
X217455952Y-112951666D01*
X217455952Y-113427857D01*
X217551190Y-113808809D01*
X217646428Y-113999285D01*
X217741666Y-114094523D01*
X217932142Y-114189761D01*
X218122619Y-114189761D01*
X218313095Y-114094523D01*
X218408333Y-113999285D01*
X218503571Y-113808809D01*
X218598809Y-113427857D01*
X218598809Y-112951666D01*
X218503571Y-112570714D01*
X218408333Y-112380238D01*
X218313095Y-112285000D01*
X218122619Y-112189761D01*
X216789285Y-112189761D02*
X215551190Y-112189761D01*
X216217857Y-112951666D01*
X215932142Y-112951666D01*
X215741666Y-113046904D01*
X215646428Y-113142142D01*
X215551190Y-113332619D01*
X215551190Y-113808809D01*
X215646428Y-113999285D01*
X215741666Y-114094523D01*
X215932142Y-114189761D01*
X216503571Y-114189761D01*
X216694047Y-114094523D01*
X216789285Y-113999285D01*
X214789285Y-112380238D02*
X214694047Y-112285000D01*
X214503571Y-112189761D01*
X214027380Y-112189761D01*
X213836904Y-112285000D01*
X213741666Y-112380238D01*
X213646428Y-112570714D01*
X213646428Y-112761190D01*
X213741666Y-113046904D01*
X214884523Y-114189761D01*
X213646428Y-114189761D01*
X230932142Y-115489761D02*
X229694047Y-115489761D01*
X230360714Y-116251666D01*
X230075000Y-116251666D01*
X229884523Y-116346904D01*
X229789285Y-116442142D01*
X229694047Y-116632619D01*
X229694047Y-117108809D01*
X229789285Y-117299285D01*
X229884523Y-117394523D01*
X230075000Y-117489761D01*
X230646428Y-117489761D01*
X230836904Y-117394523D01*
X230932142Y-117299285D01*
X229122619Y-115489761D02*
X228455952Y-117489761D01*
X227789285Y-115489761D01*
X225694047Y-117394523D02*
X225408333Y-117489761D01*
X224932142Y-117489761D01*
X224741666Y-117394523D01*
X224646428Y-117299285D01*
X224551190Y-117108809D01*
X224551190Y-116918333D01*
X224646428Y-116727857D01*
X224741666Y-116632619D01*
X224932142Y-116537380D01*
X225313095Y-116442142D01*
X225503571Y-116346904D01*
X225598809Y-116251666D01*
X225694047Y-116061190D01*
X225694047Y-115870714D01*
X225598809Y-115680238D01*
X225503571Y-115585000D01*
X225313095Y-115489761D01*
X224836904Y-115489761D01*
X224551190Y-115585000D01*
X223979761Y-116156428D02*
X223217857Y-116156428D01*
X223694047Y-115489761D02*
X223694047Y-117204047D01*
X223598809Y-117394523D01*
X223408333Y-117489761D01*
X223217857Y-117489761D01*
X221694047Y-116156428D02*
X221694047Y-117489761D01*
X222551190Y-116156428D02*
X222551190Y-117204047D01*
X222455952Y-117394523D01*
X222265476Y-117489761D01*
X221979761Y-117489761D01*
X221789285Y-117394523D01*
X221694047Y-117299285D01*
X222455952Y-115489761D02*
X222360714Y-115585000D01*
X222455952Y-115680238D01*
X222551190Y-115585000D01*
X222455952Y-115489761D01*
X222455952Y-115680238D01*
X221694047Y-115489761D02*
X221598809Y-115585000D01*
X221694047Y-115680238D01*
X221789285Y-115585000D01*
X221694047Y-115489761D01*
X221694047Y-115680238D01*
X221027380Y-116156428D02*
X220265476Y-116156428D01*
X220741666Y-115489761D02*
X220741666Y-117204047D01*
X220646428Y-117394523D01*
X220455952Y-117489761D01*
X220265476Y-117489761D01*
X219789285Y-116156428D02*
X218741666Y-116156428D01*
X219789285Y-117489761D01*
X218741666Y-117489761D01*
X217979761Y-117489761D02*
X217979761Y-115489761D01*
X217979761Y-116251666D02*
X217789285Y-116156428D01*
X217408333Y-116156428D01*
X217217857Y-116251666D01*
X217122619Y-116346904D01*
X217027380Y-116537380D01*
X217027380Y-117108809D01*
X217122619Y-117299285D01*
X217217857Y-117394523D01*
X217408333Y-117489761D01*
X217789285Y-117489761D01*
X217979761Y-117394523D01*
X215313095Y-117489761D02*
X215313095Y-116442142D01*
X215408333Y-116251666D01*
X215598809Y-116156428D01*
X215979761Y-116156428D01*
X216170238Y-116251666D01*
X215313095Y-117394523D02*
X215503571Y-117489761D01*
X215979761Y-117489761D01*
X216170238Y-117394523D01*
X216265476Y-117204047D01*
X216265476Y-117013571D01*
X216170238Y-116823095D01*
X215979761Y-116727857D01*
X215503571Y-116727857D01*
X215313095Y-116632619D01*
X214646428Y-116156428D02*
X213884523Y-116156428D01*
X214360714Y-115489761D02*
X214360714Y-117204047D01*
X214265476Y-117394523D01*
X214075000Y-117489761D01*
X213884523Y-117489761D01*
X213503571Y-116156428D02*
X212741666Y-116156428D01*
X213217857Y-115489761D02*
X213217857Y-117204047D01*
X213122619Y-117394523D01*
X212932142Y-117489761D01*
X212741666Y-117489761D01*
X211313095Y-117394523D02*
X211503571Y-117489761D01*
X211884523Y-117489761D01*
X212075000Y-117394523D01*
X212170238Y-117204047D01*
X212170238Y-116442142D01*
X212075000Y-116251666D01*
X211884523Y-116156428D01*
X211503571Y-116156428D01*
X211313095Y-116251666D01*
X211217857Y-116442142D01*
X211217857Y-116632619D01*
X212170238Y-116823095D01*
X210360714Y-117489761D02*
X210360714Y-116156428D01*
X210360714Y-116537380D02*
X210265476Y-116346904D01*
X210170238Y-116251666D01*
X209979761Y-116156428D01*
X209789285Y-116156428D01*
X209122619Y-117489761D02*
X209122619Y-116156428D01*
X209122619Y-115489761D02*
X209217857Y-115585000D01*
X209122619Y-115680238D01*
X209027380Y-115585000D01*
X209122619Y-115489761D01*
X209122619Y-115680238D01*
X207408333Y-117394523D02*
X207598809Y-117489761D01*
X207979761Y-117489761D01*
X208170238Y-117394523D01*
X208265476Y-117204047D01*
X208265476Y-116442142D01*
X208170238Y-116251666D01*
X207979761Y-116156428D01*
X207598809Y-116156428D01*
X207408333Y-116251666D01*
X207313095Y-116442142D01*
X207313095Y-116632619D01*
X208265476Y-116823095D01*
X226023809Y-154797142D02*
X225357142Y-154797142D01*
X225071428Y-155844761D02*
X226023809Y-155844761D01*
X226023809Y-153844761D01*
X225071428Y-153844761D01*
X224214285Y-155844761D02*
X224214285Y-154511428D01*
X224214285Y-153844761D02*
X224309523Y-153940000D01*
X224214285Y-154035238D01*
X224119047Y-153940000D01*
X224214285Y-153844761D01*
X224214285Y-154035238D01*
X223261904Y-154511428D02*
X223261904Y-155844761D01*
X223261904Y-154701904D02*
X223166666Y-154606666D01*
X222976190Y-154511428D01*
X222690476Y-154511428D01*
X222500000Y-154606666D01*
X222404761Y-154797142D01*
X222404761Y-155844761D01*
X221547619Y-155749523D02*
X221357142Y-155844761D01*
X220976190Y-155844761D01*
X220785714Y-155749523D01*
X220690476Y-155559047D01*
X220690476Y-155463809D01*
X220785714Y-155273333D01*
X220976190Y-155178095D01*
X221261904Y-155178095D01*
X221452380Y-155082857D01*
X221547619Y-154892380D01*
X221547619Y-154797142D01*
X221452380Y-154606666D01*
X221261904Y-154511428D01*
X220976190Y-154511428D01*
X220785714Y-154606666D01*
X220119047Y-154511428D02*
X219357142Y-154511428D01*
X219833333Y-153844761D02*
X219833333Y-155559047D01*
X219738095Y-155749523D01*
X219547619Y-155844761D01*
X219357142Y-155844761D01*
X217928571Y-155749523D02*
X218119047Y-155844761D01*
X218500000Y-155844761D01*
X218690476Y-155749523D01*
X218785714Y-155559047D01*
X218785714Y-154797142D01*
X218690476Y-154606666D01*
X218500000Y-154511428D01*
X218119047Y-154511428D01*
X217928571Y-154606666D01*
X217833333Y-154797142D01*
X217833333Y-154987619D01*
X218785714Y-155178095D01*
X216690476Y-155844761D02*
X216880952Y-155749523D01*
X216976190Y-155559047D01*
X216976190Y-153844761D01*
X215642857Y-155844761D02*
X215833333Y-155749523D01*
X215928571Y-155559047D01*
X215928571Y-153844761D01*
X214119047Y-155749523D02*
X214309523Y-155844761D01*
X214690476Y-155844761D01*
X214880952Y-155749523D01*
X214976190Y-155559047D01*
X214976190Y-154797142D01*
X214880952Y-154606666D01*
X214690476Y-154511428D01*
X214309523Y-154511428D01*
X214119047Y-154606666D01*
X214023809Y-154797142D01*
X214023809Y-154987619D01*
X214976190Y-155178095D01*
X213166666Y-154511428D02*
X213166666Y-155844761D01*
X213166666Y-154701904D02*
X213071428Y-154606666D01*
X212880952Y-154511428D01*
X212595238Y-154511428D01*
X212404761Y-154606666D01*
X212309523Y-154797142D01*
X212309523Y-155844761D01*
X208976190Y-155844761D02*
X208976190Y-154797142D01*
X209071428Y-154606666D01*
X209261904Y-154511428D01*
X209642857Y-154511428D01*
X209833333Y-154606666D01*
X208976190Y-155749523D02*
X209166666Y-155844761D01*
X209642857Y-155844761D01*
X209833333Y-155749523D01*
X209928571Y-155559047D01*
X209928571Y-155368571D01*
X209833333Y-155178095D01*
X209642857Y-155082857D01*
X209166666Y-155082857D01*
X208976190Y-154987619D01*
X208023809Y-155844761D02*
X208023809Y-153844761D01*
X207833333Y-155082857D02*
X207261904Y-155844761D01*
X207261904Y-154511428D02*
X208023809Y-155273333D01*
X206690476Y-154511428D02*
X205928571Y-154511428D01*
X206404761Y-153844761D02*
X206404761Y-155559047D01*
X206309523Y-155749523D01*
X206119047Y-155844761D01*
X205928571Y-155844761D01*
X205261904Y-155844761D02*
X205261904Y-154511428D01*
X205261904Y-153844761D02*
X205357142Y-153940000D01*
X205261904Y-154035238D01*
X205166666Y-153940000D01*
X205261904Y-153844761D01*
X205261904Y-154035238D01*
X204500000Y-154511428D02*
X204023809Y-155844761D01*
X203547619Y-154511428D01*
X230659285Y-138734761D02*
X229421190Y-138734761D01*
X230087857Y-139496666D01*
X229802142Y-139496666D01*
X229611666Y-139591904D01*
X229516428Y-139687142D01*
X229421190Y-139877619D01*
X229421190Y-140353809D01*
X229516428Y-140544285D01*
X229611666Y-140639523D01*
X229802142Y-140734761D01*
X230373571Y-140734761D01*
X230564047Y-140639523D01*
X230659285Y-140544285D01*
X227135476Y-140639523D02*
X226849761Y-140734761D01*
X226373571Y-140734761D01*
X226183095Y-140639523D01*
X226087857Y-140544285D01*
X225992619Y-140353809D01*
X225992619Y-140163333D01*
X226087857Y-139972857D01*
X226183095Y-139877619D01*
X226373571Y-139782380D01*
X226754523Y-139687142D01*
X226945000Y-139591904D01*
X227040238Y-139496666D01*
X227135476Y-139306190D01*
X227135476Y-139115714D01*
X227040238Y-138925238D01*
X226945000Y-138830000D01*
X226754523Y-138734761D01*
X226278333Y-138734761D01*
X225992619Y-138830000D01*
X224373571Y-140639523D02*
X224564047Y-140734761D01*
X224945000Y-140734761D01*
X225135476Y-140639523D01*
X225230714Y-140449047D01*
X225230714Y-139687142D01*
X225135476Y-139496666D01*
X224945000Y-139401428D01*
X224564047Y-139401428D01*
X224373571Y-139496666D01*
X224278333Y-139687142D01*
X224278333Y-139877619D01*
X225230714Y-140068095D01*
X223421190Y-140734761D02*
X223421190Y-138734761D01*
X223230714Y-139972857D02*
X222659285Y-140734761D01*
X222659285Y-139401428D02*
X223421190Y-140163333D01*
X220945000Y-139401428D02*
X220945000Y-140734761D01*
X221802142Y-139401428D02*
X221802142Y-140449047D01*
X221706904Y-140639523D01*
X221516428Y-140734761D01*
X221230714Y-140734761D01*
X221040238Y-140639523D01*
X220945000Y-140544285D01*
X219992619Y-139401428D02*
X219992619Y-140734761D01*
X219992619Y-139591904D02*
X219897380Y-139496666D01*
X219706904Y-139401428D01*
X219421190Y-139401428D01*
X219230714Y-139496666D01*
X219135476Y-139687142D01*
X219135476Y-140734761D01*
X217325952Y-140734761D02*
X217325952Y-138734761D01*
X217325952Y-140639523D02*
X217516428Y-140734761D01*
X217897380Y-140734761D01*
X218087857Y-140639523D01*
X218183095Y-140544285D01*
X218278333Y-140353809D01*
X218278333Y-139782380D01*
X218183095Y-139591904D01*
X218087857Y-139496666D01*
X217897380Y-139401428D01*
X217516428Y-139401428D01*
X217325952Y-139496666D01*
X215611666Y-140639523D02*
X215802142Y-140734761D01*
X216183095Y-140734761D01*
X216373571Y-140639523D01*
X216468809Y-140449047D01*
X216468809Y-139687142D01*
X216373571Y-139496666D01*
X216183095Y-139401428D01*
X215802142Y-139401428D01*
X215611666Y-139496666D01*
X215516428Y-139687142D01*
X215516428Y-139877619D01*
X216468809Y-140068095D01*
X214659285Y-139401428D02*
X214659285Y-140734761D01*
X214659285Y-139591904D02*
X214564047Y-139496666D01*
X214373571Y-139401428D01*
X214087857Y-139401428D01*
X213897380Y-139496666D01*
X213802142Y-139687142D01*
X213802142Y-140734761D01*
X229897380Y-144701428D02*
X230373571Y-144701428D01*
X230373571Y-141844285D01*
X229897380Y-141844285D01*
X229230714Y-143939523D02*
X228945000Y-144034761D01*
X228468809Y-144034761D01*
X228278333Y-143939523D01*
X228183095Y-143844285D01*
X228087857Y-143653809D01*
X228087857Y-143463333D01*
X228183095Y-143272857D01*
X228278333Y-143177619D01*
X228468809Y-143082380D01*
X228849761Y-142987142D01*
X229040238Y-142891904D01*
X229135476Y-142796666D01*
X229230714Y-142606190D01*
X229230714Y-142415714D01*
X229135476Y-142225238D01*
X229040238Y-142130000D01*
X228849761Y-142034761D01*
X228373571Y-142034761D01*
X228087857Y-142130000D01*
X227516428Y-142701428D02*
X226754523Y-142701428D01*
X227230714Y-142034761D02*
X227230714Y-143749047D01*
X227135476Y-143939523D01*
X226945000Y-144034761D01*
X226754523Y-144034761D01*
X225230714Y-142701428D02*
X225230714Y-144034761D01*
X226087857Y-142701428D02*
X226087857Y-143749047D01*
X225992619Y-143939523D01*
X225802142Y-144034761D01*
X225516428Y-144034761D01*
X225325952Y-143939523D01*
X225230714Y-143844285D01*
X224278333Y-142701428D02*
X224278333Y-144034761D01*
X224278333Y-142891904D02*
X224183095Y-142796666D01*
X223992619Y-142701428D01*
X223706904Y-142701428D01*
X223516428Y-142796666D01*
X223421190Y-142987142D01*
X223421190Y-144034761D01*
X221611666Y-144034761D02*
X221611666Y-142034761D01*
X221611666Y-143939523D02*
X221802142Y-144034761D01*
X222183095Y-144034761D01*
X222373571Y-143939523D01*
X222468809Y-143844285D01*
X222564047Y-143653809D01*
X222564047Y-143082380D01*
X222468809Y-142891904D01*
X222373571Y-142796666D01*
X222183095Y-142701428D01*
X221802142Y-142701428D01*
X221611666Y-142796666D01*
X219897380Y-143939523D02*
X220087857Y-144034761D01*
X220468809Y-144034761D01*
X220659285Y-143939523D01*
X220754523Y-143749047D01*
X220754523Y-142987142D01*
X220659285Y-142796666D01*
X220468809Y-142701428D01*
X220087857Y-142701428D01*
X219897380Y-142796666D01*
X219802142Y-142987142D01*
X219802142Y-143177619D01*
X220754523Y-143368095D01*
X219135476Y-144701428D02*
X218659285Y-144701428D01*
X218659285Y-141844285D01*
X219135476Y-141844285D01*
X215230714Y-142701428D02*
X215230714Y-144034761D01*
X216087857Y-142701428D02*
X216087857Y-143749047D01*
X215992619Y-143939523D01*
X215802142Y-144034761D01*
X215516428Y-144034761D01*
X215325952Y-143939523D01*
X215230714Y-143844285D01*
X214278333Y-142701428D02*
X214278333Y-144034761D01*
X214278333Y-142891904D02*
X214183095Y-142796666D01*
X213992619Y-142701428D01*
X213706904Y-142701428D01*
X213516428Y-142796666D01*
X213421190Y-142987142D01*
X213421190Y-144034761D01*
X211611666Y-144034761D02*
X211611666Y-142034761D01*
X211611666Y-143939523D02*
X211802142Y-144034761D01*
X212183095Y-144034761D01*
X212373571Y-143939523D01*
X212468809Y-143844285D01*
X212564047Y-143653809D01*
X212564047Y-143082380D01*
X212468809Y-142891904D01*
X212373571Y-142796666D01*
X212183095Y-142701428D01*
X211802142Y-142701428D01*
X211611666Y-142796666D01*
X208564047Y-144701428D02*
X209040238Y-144701428D01*
X209040238Y-141844285D01*
X208564047Y-141844285D01*
X207802142Y-144034761D02*
X207802142Y-142034761D01*
X207135476Y-143463333D01*
X206468809Y-142034761D01*
X206468809Y-144034761D01*
X205516428Y-144034761D02*
X205516428Y-142701428D01*
X205516428Y-142034761D02*
X205611666Y-142130000D01*
X205516428Y-142225238D01*
X205421190Y-142130000D01*
X205516428Y-142034761D01*
X205516428Y-142225238D01*
X204564047Y-142701428D02*
X204564047Y-144034761D01*
X204564047Y-142891904D02*
X204468809Y-142796666D01*
X204278333Y-142701428D01*
X203992619Y-142701428D01*
X203802142Y-142796666D01*
X203706904Y-142987142D01*
X203706904Y-144034761D01*
X201897380Y-142701428D02*
X201897380Y-144034761D01*
X202754523Y-142701428D02*
X202754523Y-143749047D01*
X202659285Y-143939523D01*
X202468809Y-144034761D01*
X202183095Y-144034761D01*
X201992619Y-143939523D01*
X201897380Y-143844285D01*
X201230714Y-142701428D02*
X200468809Y-142701428D01*
X200945000Y-142034761D02*
X200945000Y-143749047D01*
X200849761Y-143939523D01*
X200659285Y-144034761D01*
X200468809Y-144034761D01*
X199040238Y-143939523D02*
X199230714Y-144034761D01*
X199611666Y-144034761D01*
X199802142Y-143939523D01*
X199897380Y-143749047D01*
X199897380Y-142987142D01*
X199802142Y-142796666D01*
X199611666Y-142701428D01*
X199230714Y-142701428D01*
X199040238Y-142796666D01*
X198945000Y-142987142D01*
X198945000Y-143177619D01*
X199897380Y-143368095D01*
X198278333Y-144701428D02*
X197802142Y-144701428D01*
X197802142Y-141844285D01*
X198278333Y-141844285D01*
X230468809Y-147334761D02*
X230468809Y-145334761D01*
X229611666Y-147334761D02*
X229611666Y-146287142D01*
X229706904Y-146096666D01*
X229897380Y-146001428D01*
X230183095Y-146001428D01*
X230373571Y-146096666D01*
X230468809Y-146191904D01*
X227802142Y-147334761D02*
X227802142Y-146287142D01*
X227897380Y-146096666D01*
X228087857Y-146001428D01*
X228468809Y-146001428D01*
X228659285Y-146096666D01*
X227802142Y-147239523D02*
X227992619Y-147334761D01*
X228468809Y-147334761D01*
X228659285Y-147239523D01*
X228754523Y-147049047D01*
X228754523Y-146858571D01*
X228659285Y-146668095D01*
X228468809Y-146572857D01*
X227992619Y-146572857D01*
X227802142Y-146477619D01*
X226564047Y-147334761D02*
X226754523Y-147239523D01*
X226849761Y-147049047D01*
X226849761Y-145334761D01*
X226087857Y-146001428D02*
X225325952Y-146001428D01*
X225802142Y-145334761D02*
X225802142Y-147049047D01*
X225706904Y-147239523D01*
X225516428Y-147334761D01*
X225325952Y-147334761D01*
X223897380Y-147239523D02*
X224087857Y-147334761D01*
X224468809Y-147334761D01*
X224659285Y-147239523D01*
X224754523Y-147049047D01*
X224754523Y-146287142D01*
X224659285Y-146096666D01*
X224468809Y-146001428D01*
X224087857Y-146001428D01*
X223897380Y-146096666D01*
X223802142Y-146287142D01*
X223802142Y-146477619D01*
X224754523Y-146668095D01*
X222945000Y-146001428D02*
X222945000Y-147334761D01*
X222945000Y-146191904D02*
X222849761Y-146096666D01*
X222659285Y-146001428D01*
X222373571Y-146001428D01*
X222183095Y-146096666D01*
X222087857Y-146287142D01*
X222087857Y-147334761D01*
X219802142Y-146001428D02*
X218754523Y-146001428D01*
X219802142Y-147334761D01*
X218754523Y-147334761D01*
X217135476Y-146001428D02*
X217135476Y-147334761D01*
X217992619Y-146001428D02*
X217992619Y-147049047D01*
X217897380Y-147239523D01*
X217706904Y-147334761D01*
X217421190Y-147334761D01*
X217230714Y-147239523D01*
X217135476Y-147144285D01*
X216183095Y-147334761D02*
X216183095Y-146001428D01*
X216183095Y-146191904D02*
X216087857Y-146096666D01*
X215897380Y-146001428D01*
X215611666Y-146001428D01*
X215421190Y-146096666D01*
X215325952Y-146287142D01*
X215325952Y-147334761D01*
X215325952Y-146287142D02*
X215230714Y-146096666D01*
X215040238Y-146001428D01*
X214754523Y-146001428D01*
X214564047Y-146096666D01*
X214468809Y-146287142D01*
X214468809Y-147334761D01*
X212183095Y-145334761D02*
X210849761Y-145334761D01*
X212183095Y-147334761D01*
X210849761Y-147334761D01*
X209325952Y-147239523D02*
X209516428Y-147334761D01*
X209897380Y-147334761D01*
X210087857Y-147239523D01*
X210183095Y-147049047D01*
X210183095Y-146287142D01*
X210087857Y-146096666D01*
X209897380Y-146001428D01*
X209516428Y-146001428D01*
X209325952Y-146096666D01*
X209230714Y-146287142D01*
X209230714Y-146477619D01*
X210183095Y-146668095D01*
X208373571Y-147334761D02*
X208373571Y-146001428D01*
X208373571Y-145334761D02*
X208468809Y-145430000D01*
X208373571Y-145525238D01*
X208278333Y-145430000D01*
X208373571Y-145334761D01*
X208373571Y-145525238D01*
X207706904Y-146001428D02*
X206945000Y-146001428D01*
X207421190Y-145334761D02*
X207421190Y-147049047D01*
X207325952Y-147239523D01*
X207135476Y-147334761D01*
X206945000Y-147334761D01*
X229706904Y-150539523D02*
X229897380Y-150634761D01*
X230278333Y-150634761D01*
X230468809Y-150539523D01*
X230564047Y-150349047D01*
X230564047Y-149587142D01*
X230468809Y-149396666D01*
X230278333Y-149301428D01*
X229897380Y-149301428D01*
X229706904Y-149396666D01*
X229611666Y-149587142D01*
X229611666Y-149777619D01*
X230564047Y-149968095D01*
X228754523Y-150634761D02*
X228754523Y-149301428D01*
X228754523Y-148634761D02*
X228849761Y-148730000D01*
X228754523Y-148825238D01*
X228659285Y-148730000D01*
X228754523Y-148634761D01*
X228754523Y-148825238D01*
X227802142Y-149301428D02*
X227802142Y-150634761D01*
X227802142Y-149491904D02*
X227706904Y-149396666D01*
X227516428Y-149301428D01*
X227230714Y-149301428D01*
X227040238Y-149396666D01*
X226945000Y-149587142D01*
X226945000Y-150634761D01*
X226087857Y-150539523D02*
X225897380Y-150634761D01*
X225516428Y-150634761D01*
X225325952Y-150539523D01*
X225230714Y-150349047D01*
X225230714Y-150253809D01*
X225325952Y-150063333D01*
X225516428Y-149968095D01*
X225802142Y-149968095D01*
X225992619Y-149872857D01*
X226087857Y-149682380D01*
X226087857Y-149587142D01*
X225992619Y-149396666D01*
X225802142Y-149301428D01*
X225516428Y-149301428D01*
X225325952Y-149396666D01*
X224659285Y-149301428D02*
X223897380Y-149301428D01*
X224373571Y-148634761D02*
X224373571Y-150349047D01*
X224278333Y-150539523D01*
X224087857Y-150634761D01*
X223897380Y-150634761D01*
X222468809Y-150539523D02*
X222659285Y-150634761D01*
X223040238Y-150634761D01*
X223230714Y-150539523D01*
X223325952Y-150349047D01*
X223325952Y-149587142D01*
X223230714Y-149396666D01*
X223040238Y-149301428D01*
X222659285Y-149301428D01*
X222468809Y-149396666D01*
X222373571Y-149587142D01*
X222373571Y-149777619D01*
X223325952Y-149968095D01*
X221230714Y-150634761D02*
X221421190Y-150539523D01*
X221516428Y-150349047D01*
X221516428Y-148634761D01*
X220183095Y-150634761D02*
X220373571Y-150539523D01*
X220468809Y-150349047D01*
X220468809Y-148634761D01*
X218659285Y-150539523D02*
X218849761Y-150634761D01*
X219230714Y-150634761D01*
X219421190Y-150539523D01*
X219516428Y-150349047D01*
X219516428Y-149587142D01*
X219421190Y-149396666D01*
X219230714Y-149301428D01*
X218849761Y-149301428D01*
X218659285Y-149396666D01*
X218564047Y-149587142D01*
X218564047Y-149777619D01*
X219516428Y-149968095D01*
X217706904Y-149301428D02*
X217706904Y-150634761D01*
X217706904Y-149491904D02*
X217611666Y-149396666D01*
X217421190Y-149301428D01*
X217135476Y-149301428D01*
X216945000Y-149396666D01*
X216849761Y-149587142D01*
X216849761Y-150634761D01*
X227900952Y-186959761D02*
X227900952Y-184959761D01*
X227234285Y-186388333D01*
X226567619Y-184959761D01*
X226567619Y-186959761D01*
X225615238Y-186959761D02*
X225615238Y-185626428D01*
X225615238Y-184959761D02*
X225710476Y-185055000D01*
X225615238Y-185150238D01*
X225520000Y-185055000D01*
X225615238Y-184959761D01*
X225615238Y-185150238D01*
X224662857Y-185626428D02*
X224662857Y-186959761D01*
X224662857Y-185816904D02*
X224567619Y-185721666D01*
X224377142Y-185626428D01*
X224091428Y-185626428D01*
X223900952Y-185721666D01*
X223805714Y-185912142D01*
X223805714Y-186959761D01*
X221996190Y-185626428D02*
X221996190Y-186959761D01*
X222853333Y-185626428D02*
X222853333Y-186674047D01*
X222758095Y-186864523D01*
X222567619Y-186959761D01*
X222281904Y-186959761D01*
X222091428Y-186864523D01*
X221996190Y-186769285D01*
X221329523Y-185626428D02*
X220567619Y-185626428D01*
X221043809Y-184959761D02*
X221043809Y-186674047D01*
X220948571Y-186864523D01*
X220758095Y-186959761D01*
X220567619Y-186959761D01*
X219139047Y-186864523D02*
X219329523Y-186959761D01*
X219710476Y-186959761D01*
X219900952Y-186864523D01*
X219996190Y-186674047D01*
X219996190Y-185912142D01*
X219900952Y-185721666D01*
X219710476Y-185626428D01*
X219329523Y-185626428D01*
X219139047Y-185721666D01*
X219043809Y-185912142D01*
X219043809Y-186102619D01*
X219996190Y-186293095D01*
X228234285Y-169084523D02*
X227948571Y-169179761D01*
X227472380Y-169179761D01*
X227281904Y-169084523D01*
X227186666Y-168989285D01*
X227091428Y-168798809D01*
X227091428Y-168608333D01*
X227186666Y-168417857D01*
X227281904Y-168322619D01*
X227472380Y-168227380D01*
X227853333Y-168132142D01*
X228043809Y-168036904D01*
X228139047Y-167941666D01*
X228234285Y-167751190D01*
X228234285Y-167560714D01*
X228139047Y-167370238D01*
X228043809Y-167275000D01*
X227853333Y-167179761D01*
X227377142Y-167179761D01*
X227091428Y-167275000D01*
X226520000Y-167846428D02*
X225758095Y-167846428D01*
X226234285Y-167179761D02*
X226234285Y-168894047D01*
X226139047Y-169084523D01*
X225948571Y-169179761D01*
X225758095Y-169179761D01*
X224234285Y-167846428D02*
X224234285Y-169179761D01*
X225091428Y-167846428D02*
X225091428Y-168894047D01*
X224996190Y-169084523D01*
X224805714Y-169179761D01*
X224520000Y-169179761D01*
X224329523Y-169084523D01*
X224234285Y-168989285D01*
X223281904Y-167846428D02*
X223281904Y-169179761D01*
X223281904Y-168036904D02*
X223186666Y-167941666D01*
X222996190Y-167846428D01*
X222710476Y-167846428D01*
X222520000Y-167941666D01*
X222424761Y-168132142D01*
X222424761Y-169179761D01*
X220615238Y-169179761D02*
X220615238Y-167179761D01*
X220615238Y-169084523D02*
X220805714Y-169179761D01*
X221186666Y-169179761D01*
X221377142Y-169084523D01*
X221472380Y-168989285D01*
X221567619Y-168798809D01*
X221567619Y-168227380D01*
X221472380Y-168036904D01*
X221377142Y-167941666D01*
X221186666Y-167846428D01*
X220805714Y-167846428D01*
X220615238Y-167941666D01*
X218900952Y-169084523D02*
X219091428Y-169179761D01*
X219472380Y-169179761D01*
X219662857Y-169084523D01*
X219758095Y-168894047D01*
X219758095Y-168132142D01*
X219662857Y-167941666D01*
X219472380Y-167846428D01*
X219091428Y-167846428D01*
X218900952Y-167941666D01*
X218805714Y-168132142D01*
X218805714Y-168322619D01*
X219758095Y-168513095D01*
D14*
X155730023Y-144319761D02*
X155063357Y-146319761D01*
X154396690Y-144319761D01*
X152968119Y-146224523D02*
X153158595Y-146319761D01*
X153539547Y-146319761D01*
X153730023Y-146224523D01*
X153825261Y-146034047D01*
X153825261Y-145272142D01*
X153730023Y-145081666D01*
X153539547Y-144986428D01*
X153158595Y-144986428D01*
X152968119Y-145081666D01*
X152872880Y-145272142D01*
X152872880Y-145462619D01*
X153825261Y-145653095D01*
X152015738Y-146319761D02*
X152015738Y-144986428D01*
X152015738Y-145367380D02*
X151920500Y-145176904D01*
X151825261Y-145081666D01*
X151634785Y-144986428D01*
X151444309Y-144986428D01*
X150872880Y-146224523D02*
X150682404Y-146319761D01*
X150301452Y-146319761D01*
X150110976Y-146224523D01*
X150015738Y-146034047D01*
X150015738Y-145938809D01*
X150110976Y-145748333D01*
X150301452Y-145653095D01*
X150587166Y-145653095D01*
X150777642Y-145557857D01*
X150872880Y-145367380D01*
X150872880Y-145272142D01*
X150777642Y-145081666D01*
X150587166Y-144986428D01*
X150301452Y-144986428D01*
X150110976Y-145081666D01*
X149158595Y-146319761D02*
X149158595Y-144986428D01*
X149158595Y-144319761D02*
X149253833Y-144415000D01*
X149158595Y-144510238D01*
X149063357Y-144415000D01*
X149158595Y-144319761D01*
X149158595Y-144510238D01*
X147920500Y-146319761D02*
X148110976Y-146224523D01*
X148206214Y-146129285D01*
X148301452Y-145938809D01*
X148301452Y-145367380D01*
X148206214Y-145176904D01*
X148110976Y-145081666D01*
X147920500Y-144986428D01*
X147634785Y-144986428D01*
X147444309Y-145081666D01*
X147349071Y-145176904D01*
X147253833Y-145367380D01*
X147253833Y-145938809D01*
X147349071Y-146129285D01*
X147444309Y-146224523D01*
X147634785Y-146319761D01*
X147920500Y-146319761D01*
X146396690Y-144986428D02*
X146396690Y-146319761D01*
X146396690Y-145176904D02*
X146301452Y-145081666D01*
X146110976Y-144986428D01*
X145825261Y-144986428D01*
X145634785Y-145081666D01*
X145539547Y-145272142D01*
X145539547Y-146319761D01*
X143253833Y-144319761D02*
X142015738Y-144319761D01*
X142682404Y-145081666D01*
X142396690Y-145081666D01*
X142206214Y-145176904D01*
X142110976Y-145272142D01*
X142015738Y-145462619D01*
X142015738Y-145938809D01*
X142110976Y-146129285D01*
X142206214Y-146224523D01*
X142396690Y-146319761D01*
X142968119Y-146319761D01*
X143158595Y-146224523D01*
X143253833Y-146129285D01*
X141158595Y-146129285D02*
X141063357Y-146224523D01*
X141158595Y-146319761D01*
X141253833Y-146224523D01*
X141158595Y-146129285D01*
X141158595Y-146319761D01*
X139158595Y-146319761D02*
X140301452Y-146319761D01*
X139730023Y-146319761D02*
X139730023Y-144319761D01*
X139920500Y-144605476D01*
X140110976Y-144795952D01*
X140301452Y-144891190D01*
D15*
X155250095Y-141382666D02*
X153345333Y-141382666D01*
X155631047Y-142525523D02*
X154297714Y-138525523D01*
X152964380Y-142525523D01*
X151631047Y-139858857D02*
X151631047Y-142525523D01*
X151631047Y-140239809D02*
X151440571Y-140049333D01*
X151059619Y-139858857D01*
X150488190Y-139858857D01*
X150107238Y-140049333D01*
X149916761Y-140430285D01*
X149916761Y-142525523D01*
X146297714Y-142525523D02*
X146297714Y-138525523D01*
X146297714Y-142335047D02*
X146678666Y-142525523D01*
X147440571Y-142525523D01*
X147821523Y-142335047D01*
X148012000Y-142144571D01*
X148202476Y-141763619D01*
X148202476Y-140620761D01*
X148012000Y-140239809D01*
X147821523Y-140049333D01*
X147440571Y-139858857D01*
X146678666Y-139858857D01*
X146297714Y-140049333D01*
X144392952Y-142525523D02*
X144392952Y-139858857D01*
X144392952Y-140620761D02*
X144202476Y-140239809D01*
X144012000Y-140049333D01*
X143631047Y-139858857D01*
X143250095Y-139858857D01*
X140392952Y-142335047D02*
X140773904Y-142525523D01*
X141535809Y-142525523D01*
X141916761Y-142335047D01*
X142107238Y-141954095D01*
X142107238Y-140430285D01*
X141916761Y-140049333D01*
X141535809Y-139858857D01*
X140773904Y-139858857D01*
X140392952Y-140049333D01*
X140202476Y-140430285D01*
X140202476Y-140811238D01*
X142107238Y-141192190D01*
X136773904Y-142525523D02*
X136773904Y-140430285D01*
X136964380Y-140049333D01*
X137345333Y-139858857D01*
X138107238Y-139858857D01*
X138488190Y-140049333D01*
X136773904Y-142335047D02*
X137154857Y-142525523D01*
X138107238Y-142525523D01*
X138488190Y-142335047D01*
X138678666Y-141954095D01*
X138678666Y-141573142D01*
X138488190Y-141192190D01*
X138107238Y-141001714D01*
X137154857Y-141001714D01*
X136773904Y-140811238D01*
X135059619Y-142335047D02*
X134678666Y-142525523D01*
X133916761Y-142525523D01*
X133535809Y-142335047D01*
X133345333Y-141954095D01*
X133345333Y-141763619D01*
X133535809Y-141382666D01*
X133916761Y-141192190D01*
X134488190Y-141192190D01*
X134869142Y-141001714D01*
X135059619Y-140620761D01*
X135059619Y-140430285D01*
X134869142Y-140049333D01*
X134488190Y-139858857D01*
X133916761Y-139858857D01*
X133535809Y-140049333D01*
X127250095Y-140430285D02*
X126678666Y-140620761D01*
X126488190Y-140811238D01*
X126297714Y-141192190D01*
X126297714Y-141763619D01*
X126488190Y-142144571D01*
X126678666Y-142335047D01*
X127059619Y-142525523D01*
X128583428Y-142525523D01*
X128583428Y-138525523D01*
X127250095Y-138525523D01*
X126869142Y-138716000D01*
X126678666Y-138906476D01*
X126488190Y-139287428D01*
X126488190Y-139668380D01*
X126678666Y-140049333D01*
X126869142Y-140239809D01*
X127250095Y-140430285D01*
X128583428Y-140430285D01*
X122869142Y-139858857D02*
X122869142Y-142525523D01*
X124583428Y-139858857D02*
X124583428Y-141954095D01*
X124392952Y-142335047D01*
X124012000Y-142525523D01*
X123440571Y-142525523D01*
X123059619Y-142335047D01*
X122869142Y-142144571D01*
X121535809Y-139858857D02*
X120012000Y-139858857D01*
X120964380Y-138525523D02*
X120964380Y-141954095D01*
X120773904Y-142335047D01*
X120392952Y-142525523D01*
X120012000Y-142525523D01*
X119250095Y-139858857D02*
X117726285Y-139858857D01*
X118678666Y-138525523D02*
X118678666Y-141954095D01*
X118488190Y-142335047D01*
X118107238Y-142525523D01*
X117726285Y-142525523D01*
X116392952Y-142525523D02*
X116392952Y-139858857D01*
X116392952Y-138525523D02*
X116583428Y-138716000D01*
X116392952Y-138906476D01*
X116202476Y-138716000D01*
X116392952Y-138525523D01*
X116392952Y-138906476D01*
X114297714Y-142335047D02*
X114297714Y-142525523D01*
X114488190Y-142906476D01*
X114678666Y-143096952D01*
X109726285Y-138906476D02*
X109535809Y-138716000D01*
X109154857Y-138525523D01*
X108202476Y-138525523D01*
X107821523Y-138716000D01*
X107631047Y-138906476D01*
X107440571Y-139287428D01*
X107440571Y-139668380D01*
X107631047Y-140239809D01*
X109916761Y-142525523D01*
X107440571Y-142525523D01*
X104964380Y-138525523D02*
X104583428Y-138525523D01*
X104202476Y-138716000D01*
X104012000Y-138906476D01*
X103821523Y-139287428D01*
X103631047Y-140049333D01*
X103631047Y-141001714D01*
X103821523Y-141763619D01*
X104012000Y-142144571D01*
X104202476Y-142335047D01*
X104583428Y-142525523D01*
X104964380Y-142525523D01*
X105345333Y-142335047D01*
X105535809Y-142144571D01*
X105726285Y-141763619D01*
X105916761Y-141001714D01*
X105916761Y-140049333D01*
X105726285Y-139287428D01*
X105535809Y-138906476D01*
X105345333Y-138716000D01*
X104964380Y-138525523D01*
X102107238Y-138906476D02*
X101916761Y-138716000D01*
X101535809Y-138525523D01*
X100583428Y-138525523D01*
X100202476Y-138716000D01*
X100012000Y-138906476D01*
X99821523Y-139287428D01*
X99821523Y-139668380D01*
X100012000Y-140239809D01*
X102297714Y-142525523D01*
X99821523Y-142525523D01*
X97345333Y-138525523D02*
X96964380Y-138525523D01*
X96583428Y-138716000D01*
X96392952Y-138906476D01*
X96202476Y-139287428D01*
X96012000Y-140049333D01*
X96012000Y-141001714D01*
X96202476Y-141763619D01*
X96392952Y-142144571D01*
X96583428Y-142335047D01*
X96964380Y-142525523D01*
X97345333Y-142525523D01*
X97726285Y-142335047D01*
X97916761Y-142144571D01*
X98107238Y-141763619D01*
X98297714Y-141001714D01*
X98297714Y-140049333D01*
X98107238Y-139287428D01*
X97916761Y-138906476D01*
X97726285Y-138716000D01*
X97345333Y-138525523D01*
D12*
%TO.C,D535*%
X33945000Y-132390000D02*
X36805000Y-132390000D01*
X33945000Y-134310000D02*
X33945000Y-132390000D01*
X36805000Y-134310000D02*
X33945000Y-134310000D01*
%TO.C,D534*%
X33945000Y-162235000D02*
X36805000Y-162235000D01*
X33945000Y-164155000D02*
X33945000Y-162235000D01*
X36805000Y-164155000D02*
X33945000Y-164155000D01*
%TO.C,D533*%
X33945000Y-72700000D02*
X36805000Y-72700000D01*
X33945000Y-74620000D02*
X33945000Y-72700000D01*
X36805000Y-74620000D02*
X33945000Y-74620000D01*
%TO.C,D532*%
X33945000Y-102545000D02*
X36805000Y-102545000D01*
X33945000Y-104465000D02*
X33945000Y-102545000D01*
X36805000Y-104465000D02*
X33945000Y-104465000D01*
%TO.C,D529*%
X231095000Y-155900000D02*
X228235000Y-155900000D01*
X231095000Y-153980000D02*
X231095000Y-155900000D01*
X228235000Y-153980000D02*
X231095000Y-153980000D01*
%TO.C,D535*%
D10*
X37495476Y-135452380D02*
X37495476Y-134452380D01*
X37257380Y-134452380D01*
X37114523Y-134500000D01*
X37019285Y-134595238D01*
X36971666Y-134690476D01*
X36924047Y-134880952D01*
X36924047Y-135023809D01*
X36971666Y-135214285D01*
X37019285Y-135309523D01*
X37114523Y-135404761D01*
X37257380Y-135452380D01*
X37495476Y-135452380D01*
X36019285Y-134452380D02*
X36495476Y-134452380D01*
X36543095Y-134928571D01*
X36495476Y-134880952D01*
X36400238Y-134833333D01*
X36162142Y-134833333D01*
X36066904Y-134880952D01*
X36019285Y-134928571D01*
X35971666Y-135023809D01*
X35971666Y-135261904D01*
X36019285Y-135357142D01*
X36066904Y-135404761D01*
X36162142Y-135452380D01*
X36400238Y-135452380D01*
X36495476Y-135404761D01*
X36543095Y-135357142D01*
X35638333Y-134452380D02*
X35019285Y-134452380D01*
X35352619Y-134833333D01*
X35209761Y-134833333D01*
X35114523Y-134880952D01*
X35066904Y-134928571D01*
X35019285Y-135023809D01*
X35019285Y-135261904D01*
X35066904Y-135357142D01*
X35114523Y-135404761D01*
X35209761Y-135452380D01*
X35495476Y-135452380D01*
X35590714Y-135404761D01*
X35638333Y-135357142D01*
X34114523Y-134452380D02*
X34590714Y-134452380D01*
X34638333Y-134928571D01*
X34590714Y-134880952D01*
X34495476Y-134833333D01*
X34257380Y-134833333D01*
X34162142Y-134880952D01*
X34114523Y-134928571D01*
X34066904Y-135023809D01*
X34066904Y-135261904D01*
X34114523Y-135357142D01*
X34162142Y-135404761D01*
X34257380Y-135452380D01*
X34495476Y-135452380D01*
X34590714Y-135404761D01*
X34638333Y-135357142D01*
%TO.C,D534*%
X37495476Y-165297380D02*
X37495476Y-164297380D01*
X37257380Y-164297380D01*
X37114523Y-164345000D01*
X37019285Y-164440238D01*
X36971666Y-164535476D01*
X36924047Y-164725952D01*
X36924047Y-164868809D01*
X36971666Y-165059285D01*
X37019285Y-165154523D01*
X37114523Y-165249761D01*
X37257380Y-165297380D01*
X37495476Y-165297380D01*
X36019285Y-164297380D02*
X36495476Y-164297380D01*
X36543095Y-164773571D01*
X36495476Y-164725952D01*
X36400238Y-164678333D01*
X36162142Y-164678333D01*
X36066904Y-164725952D01*
X36019285Y-164773571D01*
X35971666Y-164868809D01*
X35971666Y-165106904D01*
X36019285Y-165202142D01*
X36066904Y-165249761D01*
X36162142Y-165297380D01*
X36400238Y-165297380D01*
X36495476Y-165249761D01*
X36543095Y-165202142D01*
X35638333Y-164297380D02*
X35019285Y-164297380D01*
X35352619Y-164678333D01*
X35209761Y-164678333D01*
X35114523Y-164725952D01*
X35066904Y-164773571D01*
X35019285Y-164868809D01*
X35019285Y-165106904D01*
X35066904Y-165202142D01*
X35114523Y-165249761D01*
X35209761Y-165297380D01*
X35495476Y-165297380D01*
X35590714Y-165249761D01*
X35638333Y-165202142D01*
X34162142Y-164630714D02*
X34162142Y-165297380D01*
X34400238Y-164249761D02*
X34638333Y-164964047D01*
X34019285Y-164964047D01*
%TO.C,D533*%
X37495476Y-75762380D02*
X37495476Y-74762380D01*
X37257380Y-74762380D01*
X37114523Y-74810000D01*
X37019285Y-74905238D01*
X36971666Y-75000476D01*
X36924047Y-75190952D01*
X36924047Y-75333809D01*
X36971666Y-75524285D01*
X37019285Y-75619523D01*
X37114523Y-75714761D01*
X37257380Y-75762380D01*
X37495476Y-75762380D01*
X36019285Y-74762380D02*
X36495476Y-74762380D01*
X36543095Y-75238571D01*
X36495476Y-75190952D01*
X36400238Y-75143333D01*
X36162142Y-75143333D01*
X36066904Y-75190952D01*
X36019285Y-75238571D01*
X35971666Y-75333809D01*
X35971666Y-75571904D01*
X36019285Y-75667142D01*
X36066904Y-75714761D01*
X36162142Y-75762380D01*
X36400238Y-75762380D01*
X36495476Y-75714761D01*
X36543095Y-75667142D01*
X35638333Y-74762380D02*
X35019285Y-74762380D01*
X35352619Y-75143333D01*
X35209761Y-75143333D01*
X35114523Y-75190952D01*
X35066904Y-75238571D01*
X35019285Y-75333809D01*
X35019285Y-75571904D01*
X35066904Y-75667142D01*
X35114523Y-75714761D01*
X35209761Y-75762380D01*
X35495476Y-75762380D01*
X35590714Y-75714761D01*
X35638333Y-75667142D01*
X34685952Y-74762380D02*
X34066904Y-74762380D01*
X34400238Y-75143333D01*
X34257380Y-75143333D01*
X34162142Y-75190952D01*
X34114523Y-75238571D01*
X34066904Y-75333809D01*
X34066904Y-75571904D01*
X34114523Y-75667142D01*
X34162142Y-75714761D01*
X34257380Y-75762380D01*
X34543095Y-75762380D01*
X34638333Y-75714761D01*
X34685952Y-75667142D01*
%TO.C,D532*%
X37495476Y-105607380D02*
X37495476Y-104607380D01*
X37257380Y-104607380D01*
X37114523Y-104655000D01*
X37019285Y-104750238D01*
X36971666Y-104845476D01*
X36924047Y-105035952D01*
X36924047Y-105178809D01*
X36971666Y-105369285D01*
X37019285Y-105464523D01*
X37114523Y-105559761D01*
X37257380Y-105607380D01*
X37495476Y-105607380D01*
X36019285Y-104607380D02*
X36495476Y-104607380D01*
X36543095Y-105083571D01*
X36495476Y-105035952D01*
X36400238Y-104988333D01*
X36162142Y-104988333D01*
X36066904Y-105035952D01*
X36019285Y-105083571D01*
X35971666Y-105178809D01*
X35971666Y-105416904D01*
X36019285Y-105512142D01*
X36066904Y-105559761D01*
X36162142Y-105607380D01*
X36400238Y-105607380D01*
X36495476Y-105559761D01*
X36543095Y-105512142D01*
X35638333Y-104607380D02*
X35019285Y-104607380D01*
X35352619Y-104988333D01*
X35209761Y-104988333D01*
X35114523Y-105035952D01*
X35066904Y-105083571D01*
X35019285Y-105178809D01*
X35019285Y-105416904D01*
X35066904Y-105512142D01*
X35114523Y-105559761D01*
X35209761Y-105607380D01*
X35495476Y-105607380D01*
X35590714Y-105559761D01*
X35638333Y-105512142D01*
X34638333Y-104702619D02*
X34590714Y-104655000D01*
X34495476Y-104607380D01*
X34257380Y-104607380D01*
X34162142Y-104655000D01*
X34114523Y-104702619D01*
X34066904Y-104797857D01*
X34066904Y-104893095D01*
X34114523Y-105035952D01*
X34685952Y-105607380D01*
X34066904Y-105607380D01*
%TD*%
M02*
