%TF.GenerationSoftware,KiCad,Pcbnew,5.1.6-c6e7f7d~87~ubuntu18.04.1*%
%TF.CreationDate,2020-08-30T13:02:08+02:00*%
%TF.ProjectId,Elektronik,456c656b-7472-46f6-9e69-6b2e6b696361,rev?*%
%TF.SameCoordinates,Original*%
%TF.FileFunction,Paste,Bot*%
%TF.FilePolarity,Positive*%
%FSLAX46Y46*%
G04 Gerber Fmt 4.6, Leading zero omitted, Abs format (unit mm)*
G04 Created by KiCad (PCBNEW 5.1.6-c6e7f7d~87~ubuntu18.04.1) date 2020-08-30 13:02:08*
%MOMM*%
%LPD*%
G01*
G04 APERTURE LIST*
G04 APERTURE END LIST*
%TO.C,D535*%
G36*
G01*
X36255000Y-133800001D02*
X36255000Y-132899999D01*
G75*
G02*
X36504999Y-132650000I249999J0D01*
G01*
X37155001Y-132650000D01*
G75*
G02*
X37405000Y-132899999I0J-249999D01*
G01*
X37405000Y-133800001D01*
G75*
G02*
X37155001Y-134050000I-249999J0D01*
G01*
X36504999Y-134050000D01*
G75*
G02*
X36255000Y-133800001I0J249999D01*
G01*
G37*
G36*
G01*
X34205000Y-133800001D02*
X34205000Y-132899999D01*
G75*
G02*
X34454999Y-132650000I249999J0D01*
G01*
X35105001Y-132650000D01*
G75*
G02*
X35355000Y-132899999I0J-249999D01*
G01*
X35355000Y-133800001D01*
G75*
G02*
X35105001Y-134050000I-249999J0D01*
G01*
X34454999Y-134050000D01*
G75*
G02*
X34205000Y-133800001I0J249999D01*
G01*
G37*
%TD*%
%TO.C,D534*%
G36*
G01*
X36255000Y-163645001D02*
X36255000Y-162744999D01*
G75*
G02*
X36504999Y-162495000I249999J0D01*
G01*
X37155001Y-162495000D01*
G75*
G02*
X37405000Y-162744999I0J-249999D01*
G01*
X37405000Y-163645001D01*
G75*
G02*
X37155001Y-163895000I-249999J0D01*
G01*
X36504999Y-163895000D01*
G75*
G02*
X36255000Y-163645001I0J249999D01*
G01*
G37*
G36*
G01*
X34205000Y-163645001D02*
X34205000Y-162744999D01*
G75*
G02*
X34454999Y-162495000I249999J0D01*
G01*
X35105001Y-162495000D01*
G75*
G02*
X35355000Y-162744999I0J-249999D01*
G01*
X35355000Y-163645001D01*
G75*
G02*
X35105001Y-163895000I-249999J0D01*
G01*
X34454999Y-163895000D01*
G75*
G02*
X34205000Y-163645001I0J249999D01*
G01*
G37*
%TD*%
%TO.C,D533*%
G36*
G01*
X36255000Y-74110001D02*
X36255000Y-73209999D01*
G75*
G02*
X36504999Y-72960000I249999J0D01*
G01*
X37155001Y-72960000D01*
G75*
G02*
X37405000Y-73209999I0J-249999D01*
G01*
X37405000Y-74110001D01*
G75*
G02*
X37155001Y-74360000I-249999J0D01*
G01*
X36504999Y-74360000D01*
G75*
G02*
X36255000Y-74110001I0J249999D01*
G01*
G37*
G36*
G01*
X34205000Y-74110001D02*
X34205000Y-73209999D01*
G75*
G02*
X34454999Y-72960000I249999J0D01*
G01*
X35105001Y-72960000D01*
G75*
G02*
X35355000Y-73209999I0J-249999D01*
G01*
X35355000Y-74110001D01*
G75*
G02*
X35105001Y-74360000I-249999J0D01*
G01*
X34454999Y-74360000D01*
G75*
G02*
X34205000Y-74110001I0J249999D01*
G01*
G37*
%TD*%
%TO.C,D532*%
G36*
G01*
X36255000Y-103955001D02*
X36255000Y-103054999D01*
G75*
G02*
X36504999Y-102805000I249999J0D01*
G01*
X37155001Y-102805000D01*
G75*
G02*
X37405000Y-103054999I0J-249999D01*
G01*
X37405000Y-103955001D01*
G75*
G02*
X37155001Y-104205000I-249999J0D01*
G01*
X36504999Y-104205000D01*
G75*
G02*
X36255000Y-103955001I0J249999D01*
G01*
G37*
G36*
G01*
X34205000Y-103955001D02*
X34205000Y-103054999D01*
G75*
G02*
X34454999Y-102805000I249999J0D01*
G01*
X35105001Y-102805000D01*
G75*
G02*
X35355000Y-103054999I0J-249999D01*
G01*
X35355000Y-103955001D01*
G75*
G02*
X35105001Y-104205000I-249999J0D01*
G01*
X34454999Y-104205000D01*
G75*
G02*
X34205000Y-103955001I0J249999D01*
G01*
G37*
%TD*%
%TO.C,D529*%
G36*
G01*
X228785000Y-154489999D02*
X228785000Y-155390001D01*
G75*
G02*
X228535001Y-155640000I-249999J0D01*
G01*
X227884999Y-155640000D01*
G75*
G02*
X227635000Y-155390001I0J249999D01*
G01*
X227635000Y-154489999D01*
G75*
G02*
X227884999Y-154240000I249999J0D01*
G01*
X228535001Y-154240000D01*
G75*
G02*
X228785000Y-154489999I0J-249999D01*
G01*
G37*
G36*
G01*
X230835000Y-154489999D02*
X230835000Y-155390001D01*
G75*
G02*
X230585001Y-155640000I-249999J0D01*
G01*
X229934999Y-155640000D01*
G75*
G02*
X229685000Y-155390001I0J249999D01*
G01*
X229685000Y-154489999D01*
G75*
G02*
X229934999Y-154240000I249999J0D01*
G01*
X230585001Y-154240000D01*
G75*
G02*
X230835000Y-154489999I0J-249999D01*
G01*
G37*
%TD*%
M02*
