%TF.GenerationSoftware,KiCad,Pcbnew,5.1.6-c6e7f7d~87~ubuntu18.04.1*%
%TF.CreationDate,2020-08-16T11:24:39+02:00*%
%TF.ProjectId,Elektronik,456c656b-7472-46f6-9e69-6b2e6b696361,rev?*%
%TF.SameCoordinates,Original*%
%TF.FileFunction,Soldermask,Bot*%
%TF.FilePolarity,Negative*%
%FSLAX46Y46*%
G04 Gerber Fmt 4.6, Leading zero omitted, Abs format (unit mm)*
G04 Created by KiCad (PCBNEW 5.1.6-c6e7f7d~87~ubuntu18.04.1) date 2020-08-16 11:24:39*
%MOMM*%
%LPD*%
G01*
G04 APERTURE LIST*
%ADD10O,1.800000X1.800000*%
%ADD11R,1.800000X1.800000*%
%ADD12R,15.100000X5.100000*%
%ADD13C,1.000000*%
%ADD14C,8.700000*%
%ADD15C,0.254000*%
G04 APERTURE END LIST*
D10*
%TO.C,J9*%
X55880000Y-21590000D03*
D11*
X53340000Y-21590000D03*
%TD*%
D10*
%TO.C,J8*%
X210185000Y-21590000D03*
D11*
X212725000Y-21590000D03*
%TD*%
D10*
%TO.C,J7*%
X211455000Y-216535000D03*
D11*
X213995000Y-216535000D03*
%TD*%
D10*
%TO.C,J6*%
X53975000Y-215900000D03*
D11*
X51435000Y-215900000D03*
%TD*%
D10*
%TO.C,J5*%
X230505000Y-132715000D03*
X230505000Y-130175000D03*
X230505000Y-127635000D03*
X230505000Y-125095000D03*
D11*
X230505000Y-122555000D03*
%TD*%
D12*
%TO.C,TP3*%
X219075000Y-84455000D03*
%TD*%
%TO.C,D529*%
G36*
G01*
X228835000Y-154461738D02*
X228835000Y-155418262D01*
G75*
G02*
X228563262Y-155690000I-271738J0D01*
G01*
X227856738Y-155690000D01*
G75*
G02*
X227585000Y-155418262I0J271738D01*
G01*
X227585000Y-154461738D01*
G75*
G02*
X227856738Y-154190000I271738J0D01*
G01*
X228563262Y-154190000D01*
G75*
G02*
X228835000Y-154461738I0J-271738D01*
G01*
G37*
G36*
G01*
X230885000Y-154461738D02*
X230885000Y-155418262D01*
G75*
G02*
X230613262Y-155690000I-271738J0D01*
G01*
X229906738Y-155690000D01*
G75*
G02*
X229635000Y-155418262I0J271738D01*
G01*
X229635000Y-154461738D01*
G75*
G02*
X229906738Y-154190000I271738J0D01*
G01*
X230613262Y-154190000D01*
G75*
G02*
X230885000Y-154461738I0J-271738D01*
G01*
G37*
%TD*%
D13*
%TO.C,H4*%
X218053419Y-203840581D03*
X215773000Y-202896000D03*
X213492581Y-203840581D03*
X212548000Y-206121000D03*
X213492581Y-208401419D03*
X215773000Y-209346000D03*
X218053419Y-208401419D03*
X218998000Y-206121000D03*
D14*
X215773000Y-206121000D03*
%TD*%
D13*
%TO.C,H3*%
X52826419Y-203840581D03*
X50546000Y-202896000D03*
X48265581Y-203840581D03*
X47321000Y-206121000D03*
X48265581Y-208401419D03*
X50546000Y-209346000D03*
X52826419Y-208401419D03*
X53771000Y-206121000D03*
D14*
X50546000Y-206121000D03*
%TD*%
D13*
%TO.C,H2*%
X218434419Y-27310581D03*
X216154000Y-26366000D03*
X213873581Y-27310581D03*
X212929000Y-29591000D03*
X213873581Y-31871419D03*
X216154000Y-32816000D03*
X218434419Y-31871419D03*
X219379000Y-29591000D03*
D14*
X216154000Y-29591000D03*
%TD*%
D13*
%TO.C,H1*%
X52572419Y-27183581D03*
X50292000Y-26239000D03*
X48011581Y-27183581D03*
X47067000Y-29464000D03*
X48011581Y-31744419D03*
X50292000Y-32689000D03*
X52572419Y-31744419D03*
X53517000Y-29464000D03*
D14*
X50292000Y-29464000D03*
%TD*%
D10*
%TO.C,J4*%
X225044000Y-211201000D03*
X222504000Y-211201000D03*
X225044000Y-208661000D03*
X222504000Y-208661000D03*
X225044000Y-206121000D03*
X222504000Y-206121000D03*
X225044000Y-203581000D03*
D11*
X222504000Y-203581000D03*
%TD*%
D10*
%TO.C,J3*%
X43942000Y-211201000D03*
X41402000Y-211201000D03*
X43942000Y-208661000D03*
X41402000Y-208661000D03*
X43942000Y-206121000D03*
X41402000Y-206121000D03*
X43942000Y-203581000D03*
D11*
X41402000Y-203581000D03*
%TD*%
D10*
%TO.C,J2*%
X225298000Y-34671000D03*
X222758000Y-34671000D03*
X225298000Y-32131000D03*
X222758000Y-32131000D03*
X225298000Y-29591000D03*
X222758000Y-29591000D03*
X225298000Y-27051000D03*
D11*
X222758000Y-27051000D03*
%TD*%
D10*
%TO.C,J1*%
X43688000Y-34544000D03*
X41148000Y-34544000D03*
X43688000Y-32004000D03*
X41148000Y-32004000D03*
X43688000Y-29464000D03*
X41148000Y-29464000D03*
X43688000Y-26924000D03*
D11*
X41148000Y-26924000D03*
%TD*%
D15*
G36*
X52842034Y-213233000D02*
G01*
X39126034Y-213233000D01*
X39126034Y-200787000D01*
X52842034Y-200787000D01*
X52842034Y-213233000D01*
G37*
X52842034Y-213233000D02*
X39126034Y-213233000D01*
X39126034Y-200787000D01*
X52842034Y-200787000D01*
X52842034Y-213233000D01*
G36*
X227467034Y-36703000D02*
G01*
X213751034Y-36703000D01*
X213751034Y-24257000D01*
X227467034Y-24257000D01*
X227467034Y-36703000D01*
G37*
X227467034Y-36703000D02*
X213751034Y-36703000D01*
X213751034Y-24257000D01*
X227467034Y-24257000D01*
X227467034Y-36703000D01*
G36*
X52842034Y-36703000D02*
G01*
X39126034Y-36703000D01*
X39126034Y-24257000D01*
X52842034Y-24257000D01*
X52842034Y-36703000D01*
G37*
X52842034Y-36703000D02*
X39126034Y-36703000D01*
X39126034Y-24257000D01*
X52842034Y-24257000D01*
X52842034Y-36703000D01*
G36*
X227467034Y-213233000D02*
G01*
X213751034Y-213233000D01*
X213751034Y-200787000D01*
X227467034Y-200787000D01*
X227467034Y-213233000D01*
G37*
X227467034Y-213233000D02*
X213751034Y-213233000D01*
X213751034Y-200787000D01*
X227467034Y-200787000D01*
X227467034Y-213233000D01*
M02*
