M48
; DRILL file {KiCad 5.1.6-c6e7f7d~87~ubuntu18.04.1} date Sun Aug 16 11:24:41 2020
; FORMAT={-:-/ absolute / inch / decimal}
; #@! TF.CreationDate,2020-08-16T11:24:41+02:00
; #@! TF.GenerationSoftware,Kicad,Pcbnew,5.1.6-c6e7f7d~87~ubuntu18.04.1
; #@! TF.FileFunction,Plated,1,2,PTH
FMAT,2
INCH
T1C0.0157
T2C0.0236
T3C0.0394
T4C0.1693
%
G90
G05
T1
X1.675Y-2.775
X1.675Y-2.825
X1.675Y-2.875
X1.725Y-2.575
X1.725Y-7.175
X1.725Y-7.25
X1.725Y-7.325
X1.7926Y-2.205
X1.8076Y-6.6275
X1.8076Y-6.8275
X1.808Y-6.9925
X1.85Y-2.25
X1.85Y-2.3
X1.865Y-1.775
X1.875Y-2.4
X1.875Y-6.55
X1.875Y-6.675
X1.875Y-6.725
X1.915Y-1.725
X1.925Y-2.575
X1.925Y-2.775
X1.925Y-2.825
X1.925Y-2.875
X1.95Y-7.0
X1.95Y-7.175
X1.95Y-7.25
X1.95Y-7.325
X1.965Y-1.675
X1.965Y-1.875
X1.985Y-2.155
X2.005Y-6.575
X2.015Y-1.825
X2.065Y-1.775
X2.14Y-7.57
X2.185Y-2.14
X2.185Y-4.425
X2.1925Y-6.8275
X2.2075Y-3.61
X2.2075Y-5.24
X2.21Y-6.02
X2.22Y-1.3163
X2.27Y-2.805
X2.35Y-8.125
X2.45Y-2.865
X2.475Y-2.105
X2.4882Y-1.315
X2.49Y-3.6375
X2.49Y-5.24
X2.4966Y-6.83
X2.5Y-7.575
X2.5063Y-4.4238
X2.525Y-8.325
X2.525Y-8.575
X2.6Y-8.325
X2.6Y-8.575
X2.65Y-8.2
X2.675Y-8.325
X2.675Y-8.575
X2.7Y-7.95
X2.85Y-7.95
X3.0137Y-4.4238
X3.035Y-2.865
X3.0425Y-6.8275
X3.045Y-2.1
X3.0466Y-7.585
X3.05Y-5.2325
X3.0532Y-1.3224
X3.1057Y-3.6368
X3.25Y-7.95
X3.375Y-7.95
X3.5Y-8.25
X3.5Y-8.45
X3.5495Y-7.5845
X3.555Y-8.4474
X3.5641Y-6.025
X3.575Y-2.1
X3.5925Y-6.8275
X3.605Y-8.439
X3.6125Y-3.665
X3.6141Y-5.235
X3.615Y-2.865
X3.65Y-8.375
X3.679Y-4.424
X3.775Y-8.375
X3.8Y-7.95
X3.925Y-7.95
X3.925Y-8.3715
X3.95Y-8.5
X4.1145Y-6.827
X4.125Y-4.425
X4.1341Y-3.675
X4.1425Y-7.585
X4.1441Y-5.24
X4.1491Y-2.1
X4.15Y-1.32
X4.15Y-2.865
X4.1541Y-6.02
X4.35Y-8.025
X4.5Y-8.025
X4.6675Y-6.815
X4.6775Y-7.585
X4.6995Y-5.2395
X4.7Y-2.105
X4.7091Y-6.02
X4.8994Y-4.4244
X4.91Y-1.32
X4.94Y-2.865
X5.0Y-8.025
X5.1Y-8.075
X5.175Y-7.63
X5.1857Y-6.85
X5.2075Y-2.0975
X5.2104Y-4.4246
X5.25Y-6.02
X5.2808Y-5.235
X5.2825Y-2.8675
X5.2875Y-3.6375
X5.325Y-1.32
X5.525Y-8.075
X5.65Y-8.075
X5.7375Y-7.63
X5.805Y-5.24
X5.8052Y-4.4248
X5.82Y-6.02
X5.835Y-2.865
X5.8491Y-6.85
X5.88Y-2.105
X5.8882Y-3.6368
X6.15Y-8.075
X6.25Y-8.075
X6.32Y-5.24
X6.365Y-2.105
X6.3766Y-6.0225
X6.3768Y-3.6368
X6.38Y-1.32
X6.38Y-6.8725
X6.41Y-4.425
X6.825Y-8.075
X6.8292Y-6.85
X6.8733Y-3.6368
X6.8825Y-7.585
X6.9025Y-5.2375
X6.91Y-1.32
X6.915Y-2.105
X6.9195Y-2.8645
X6.9291Y-4.455
X6.9425Y-6.07
X6.975Y-8.075
X7.125Y-8.325
X7.125Y-8.575
X7.2Y-8.325
X7.2Y-8.575
X7.25Y-8.075
X7.275Y-8.325
X7.275Y-8.575
X7.3482Y-6.8475
X7.4337Y-7.5838
X7.4657Y-6.025
X7.475Y-1.32
X7.475Y-8.25
X7.475Y-8.35
X7.4791Y-2.1
X7.485Y-4.425
X7.49Y-5.24
X7.525Y-8.45
X7.57Y-2.865
X7.575Y-8.425
X7.625Y-8.375
X7.725Y-8.4474
X7.75Y-8.02
X7.75Y-8.07
X7.75Y-8.115
X7.755Y-7.97
X7.84Y-7.01
X7.84Y-7.065
X7.84Y-7.12
X7.84Y-7.175
X7.88Y-7.235
X7.88Y-7.435
X7.9Y-8.375
X7.9Y-8.437
X7.9516Y-7.63
X8.02Y-7.285
X8.03Y-2.865
X8.0385Y-5.991
X8.04Y-4.435
X8.05Y-7.255
X8.0532Y-1.32
X8.07Y-2.105
X8.075Y-4.2
X8.085Y-7.22
X8.12Y-7.19
X8.125Y-4.25
X8.175Y-4.3
X8.175Y-8.1
X8.2Y-4.075
X8.225Y-4.15
X8.2317Y-4.7933
X8.2317Y-4.8933
X8.275Y-4.2
X8.31Y-5.715
X8.325Y-4.775
X8.325Y-4.875
X8.365Y-6.405
X8.375Y-5.65
X8.375Y-5.8
X8.4449Y-2.85
X8.55Y-1.725
X8.55Y-6.375
X8.55Y-7.05
X8.575Y-5.65
X8.6Y-1.775
X8.625Y-5.8
X8.65Y-1.625
X8.65Y-1.825
X8.675Y-2.925
X8.675Y-3.0
X8.7Y-1.675
X8.7474Y-3.175
X8.75Y-1.725
X8.925Y-3.175
X8.9846Y-6.1
X9.075Y-5.38
X9.075Y-6.1
X9.13Y-5.38
X9.15Y-6.1
T2
X1.853Y-1.16
X1.8902Y-1.0702
X1.8902Y-1.2498
X1.98Y-1.033
X1.98Y-1.287
X2.0698Y-1.0702
X2.0698Y-1.2498
X2.107Y-1.16
X8.383Y-1.165
X8.4202Y-1.0752
X8.4202Y-1.2548
X8.51Y-1.038
X8.51Y-1.292
X8.5998Y-1.0752
X8.5998Y-1.2548
X8.637Y-1.165
X1.863Y-8.115
X1.9002Y-8.0252
X1.9002Y-8.2048
X1.99Y-7.988
X1.99Y-8.242
X2.0798Y-8.0252
X2.0798Y-8.2048
X2.117Y-8.115
X8.368Y-8.115
X8.4052Y-8.0252
X8.4052Y-8.2048
X8.495Y-7.988
X8.495Y-8.242
X8.5848Y-8.0252
X8.5848Y-8.2048
X8.622Y-8.115
T3
X8.325Y-8.525
X8.425Y-8.525
X9.075Y-4.825
X9.075Y-4.925
X9.075Y-5.025
X9.075Y-5.125
X9.075Y-5.225
X1.62Y-1.06
X1.62Y-1.16
X1.62Y-1.26
X1.62Y-1.36
X1.72Y-1.06
X1.72Y-1.16
X1.72Y-1.26
X1.72Y-1.36
X2.1Y-0.85
X2.2Y-0.85
X8.275Y-0.85
X8.375Y-0.85
X8.77Y-1.065
X8.77Y-1.165
X8.77Y-1.265
X8.77Y-1.365
X8.87Y-1.065
X8.87Y-1.165
X8.87Y-1.265
X8.87Y-1.365
X2.025Y-8.5
X2.125Y-8.5
X8.76Y-8.015
X8.76Y-8.115
X8.76Y-8.215
X8.76Y-8.315
X8.86Y-8.015
X8.86Y-8.115
X8.86Y-8.215
X8.86Y-8.315
X1.63Y-8.015
X1.63Y-8.115
X1.63Y-8.215
X1.63Y-8.315
X1.73Y-8.015
X1.73Y-8.115
X1.73Y-8.215
X1.73Y-8.315
T4
X1.98Y-1.16
X8.51Y-1.165
X1.99Y-8.115
X8.495Y-8.115
T0
M30
